<?xml version="1.0" encoding="utf-8"?>
<!-- Generator: Adobe Illustrator 15.0.0, SVG Export Plug-In . SVG Version: 6.00 Build 0)  -->
<!DOCTYPE svg PUBLIC "-//W3C//DTD SVG 1.0//EN" "http://www.w3.org/TR/2001/REC-SVG-20010904/DTD/svg10.dtd">
<svg version="1.0" id="Layer_1" xmlns="http://www.w3.org/2000/svg" xmlns:xlink="http://www.w3.org/1999/xlink" x="0px" y="0px"
	 width="60px" height="60px" viewBox="0 0 60 60" enable-background="new 0 0 60 60" xml:space="preserve">
<path fill="#FFFFFF" d="M29.393,0.292L3.666,15.146v29.708l25.728,14.854l25.728-14.854V15.146L29.393,0.292z M45.506,29.117h-6.748
	v-7.266c-2.742,0-2.373,1.928-2.373,1.928s0,10.232,0,12.753c0,2.521,2.373,2.002,2.373,2.002v-6.896h6.748v11.639
	c0,0-11.346-0.014-11.717,0c-4.273-1.033-4.474-3.876-4.457-4.583c-0.104,4.505-4.347,4.583-4.347,4.583H12.88V31.666h6.747v6.868
	c2.596,0,2.225-2.002,2.225-2.002s0-10.231,0-12.753s-2.225-1.928-2.225-1.928v7.266H12.88V17.19c0,0,2.003,0.001,8.972,0
	c6.971-0.001,7.489,4.661,7.489,4.661c0-4.82,6.637-4.66,6.637-4.66h9.527V29.117z"/>
<path fill="#FFFFFF" d="M29.394,25.458c-0.047,0-0.088,0.028-0.117,0.071c-0.03,0.046-0.049,0.106-0.049,0.175V30v4.293
	c0,0.068,0.019,0.132,0.049,0.177c0.029,0.044,0.07,0.072,0.117,0.072c0.045,0,0.086-0.028,0.115-0.072
	c0.031-0.045,0.049-0.108,0.049-0.177V30v-4.296c0-0.068-0.018-0.129-0.049-0.175C29.48,25.486,29.439,25.458,29.394,25.458z"/>
</svg>
