<?xml version="1.0" encoding="utf-8"?>
<!-- Generator: Adobe Illustrator 15.0.0, SVG Export Plug-In . SVG Version: 6.00 Build 0)  -->
<!DOCTYPE svg PUBLIC "-//W3C//DTD SVG 1.0//EN" "http://www.w3.org/TR/2001/REC-SVG-20010904/DTD/svg10.dtd">
<svg version="1.0" id="Layer_1" xmlns="http://www.w3.org/2000/svg" xmlns:xlink="http://www.w3.org/1999/xlink" x="0px" y="0px"
	 width="44.373px" height="51.236px" viewBox="0 0 44.373 51.236" enable-background="new 0 0 44.373 51.236" xml:space="preserve">
<path fill="#FFFFFF" stroke="#FFFFFF" stroke-miterlimit="10" d="M22.187,0.577L0.5,13.098v25.041l21.687,12.521l21.687-12.521
	V13.098L22.187,0.577z M35.768,24.875H30.08V18.75c-2.313,0-2,1.625-2,1.625s0,8.625,0,10.75s2,1.688,2,1.688V27h5.688v9.81
	c0,0-9.563-0.011-9.875,0c-3.602-0.871-3.772-3.268-3.758-3.862c-0.087,3.797-3.664,3.862-3.664,3.862H8.268v-9.787h5.688v5.79
	c2.188,0,1.875-1.688,1.875-1.688s0-8.625,0-10.75s-1.875-1.625-1.875-1.625v6.125H8.268V14.821c0,0,1.688,0,7.563,0
	s6.313,3.929,6.313,3.929c0-4.063,5.594-3.928,5.594-3.928h8.031V24.875z"/>
</svg>
